<svg width="558" height="558" viewBox="0 0 558 558" fill="none" xmlns="http://www.w3.org/2000/svg">
<g clip-path="url(#clip0_1_3)">
<rect width="558" height="558" rx="110" fill="white"/>
<rect width="279" height="279" fill="#8B1E3F"/>
<rect y="279" width="279" height="279" fill="#89BD9E"/>
<rect x="279" width="279" height="279" fill="#F0C987"/>
<rect x="279" y="279" width="279" height="279" fill="#DB4C40"/>
<g filter="url(#filter0_d_1_3)">
<path d="M378.686 192.337L378.961 191.46V190.541V-492.742C378.961 -515.83 373.229 -537.019 363.645 -552.632C354.122 -568.146 340.169 -579 323.697 -579H234.487C218.015 -579 204.061 -568.146 194.539 -552.632C184.955 -537.019 179.223 -515.83 179.223 -492.742L179.223 190.541V191.473L179.505 192.36L226.773 340.948L245.467 399.714C251.827 419.707 264.669 432.07 279.677 432C294.668 431.929 307.451 419.466 313.738 399.423L332.085 340.925L378.686 192.337Z" fill="#F0C987" stroke="#F0C987" stroke-width="12"/>
<path d="M232.49 339.129L251.184 397.895C263.144 435.491 296.186 435.335 308.013 397.627L326.359 339.129L328.688 331.705H230.129L232.49 339.129Z" fill="#3C153B"/>
<rect x="238" y="-130.79" width="82" height="318.009" rx="41" fill="#F2756A"/>
<path d="M173 -145.803L238 -145.803L238 141.705C238 158.55 224.345 172.205 207.5 172.205H203.5C186.655 172.205 173 158.55 173 141.705L173 -145.803Z" fill="#DB4C40"/>
<path d="M320 -145.803L385 -145.803V141.705C385 158.55 371.345 172.205 354.5 172.205H350.5C333.655 172.205 320 158.55 320 141.705L320 -145.803Z" fill="#DB4C40"/>
</g>
<rect x="173" y="-60" width="12" height="235" fill="#F0C987"/>
<rect x="373" y="-60" width="12" height="235" fill="#F0C987"/>
</g>
<defs>
<filter id="filter0_d_1_3" x="88" y="-666" width="382" height="1193" filterUnits="userSpaceOnUse" color-interpolation-filters="sRGB">
<feFlood flood-opacity="0" result="BackgroundImageFix"/>
<feColorMatrix in="SourceAlpha" type="matrix" values="0 0 0 0 0 0 0 0 0 0 0 0 0 0 0 0 0 0 127 0" result="hardAlpha"/>
<feOffset dy="4"/>
<feGaussianBlur stdDeviation="42.5"/>
<feComposite in2="hardAlpha" operator="out"/>
<feColorMatrix type="matrix" values="0 0 0 0 0.235294 0 0 0 0 0.0823529 0 0 0 0 0.231373 0 0 0 1 0"/>
<feBlend mode="normal" in2="BackgroundImageFix" result="effect1_dropShadow_1_3"/>
<feBlend mode="normal" in="SourceGraphic" in2="effect1_dropShadow_1_3" result="shape"/>
</filter>
<clipPath id="clip0_1_3">
<rect width="558" height="558" rx="110" fill="white"/>
</clipPath>
</defs>
</svg>
