<svg width="543" height="543" viewBox="0 0 543 543" fill="none" xmlns="http://www.w3.org/2000/svg">
<rect width="543" height="543" rx="112" fill="url(#paint0_linear_101_2)"/>
<path fill-rule="evenodd" clip-rule="evenodd" d="M485.507 161.341C485.507 98.5605 434.613 47.6666 371.833 47.6666C315.776 47.6666 267.672 87.5966 257.35 142.694L224.068 320.351L385.976 288.715C443.79 277.419 485.507 226.761 485.507 167.854L485.507 161.341ZM333.886 204.91C355.905 226.929 391.603 226.929 413.622 204.91C435.64 182.892 435.64 147.193 413.622 125.175C391.603 103.156 355.905 103.156 333.886 125.175C311.868 147.193 311.868 182.892 333.886 204.91Z" fill="white"/>
<mask id="path-3-inside-1_101_2" fill="white">
<path d="M61.4428 271.007C61.4428 263.827 67.2631 258.007 74.4428 258.007H159.663C166.843 258.007 172.663 263.827 172.663 271.007V369.227H74.4428C67.2631 369.227 61.4428 363.407 61.4428 356.227V271.007Z"/>
</mask>
<path d="M61.4428 271.007C61.4428 263.827 67.2631 258.007 74.4428 258.007H159.663C166.843 258.007 172.663 263.827 172.663 271.007V369.227H74.4428C67.2631 369.227 61.4428 363.407 61.4428 356.227V271.007Z" stroke="white" stroke-width="40" mask="url(#path-3-inside-1_101_2)"/>
<path d="M172.663 369.227H270.884C278.064 369.227 283.884 375.047 283.884 382.227V467.448C283.884 474.627 278.064 480.448 270.884 480.448H185.663C178.484 480.448 172.663 474.627 172.663 467.448V369.227Z" fill="white"/>
<defs>
<linearGradient id="paint0_linear_101_2" x1="271.5" y1="0" x2="271.5" y2="543" gradientUnits="userSpaceOnUse">
<stop stop-color="#4A9FFF"/>
<stop offset="1" stop-color="#431BBC"/>
</linearGradient>
</defs>
</svg>
