<svg xmlns="http://www.w3.org/2000/svg" version="1.1" xmlns:xlink="http://www.w3.org/1999/xlink" xmlns:svgjs="http://svgjs.com/svgjs" width="512" height="512" x="0" y="0" viewBox="0 0 512 512" style="enable-background:new 0 0 512 512" xml:space="preserve" class=""><g><path d="M436 251.18C433.39 153.91 353 75.83 255.69 76a180 180 0 0 0 .31 360h.49A46.85 46.85 0 0 0 303 389v-41.55A47.44 47.44 0 0 1 350.46 300h39.18A46.33 46.33 0 0 0 436 252.91zM186 160a31 31 0 1 1-31 31 31 31 0 0 1 31-31zm-23 149a29 29 0 1 1 29-29 29 29 0 0 1-29 29zm54.5 68a25.5 25.5 0 1 1 25.5-25.5 25.5 25.5 0 0 1-25.49 25.5zm66-175a35.5 35.5 0 1 1 35.5-35.5 35.5 35.5 0 0 1-35.49 35.5zm71.5 56a29 29 0 1 1 29-29 29 29 0 0 1-29 29z" fill="#f0c987" data-original="#000000" class=""></path></g></svg>